<svg viewBox="0 0 480 420" xmlns="http://www.w3.org/2000/svg" role="img" aria-hidden="true">
  <ellipse cx="240" cy="400" rx="200" ry="14" fill="#E4E7EC"/>
  <rect x="170" y="40" width="140" height="300" rx="18" fill="#4CAF6A"/>
  <circle cx="240" cy="90" r="22" fill="#fff"/>
  <rect x="200" y="130" width="80" height="14" rx="7" fill="#fff"/>
  <rect x="200" y="160" width="80" height="14" rx="7" fill="#2E8B57"/>
  <circle cx="207" cy="167" r="3" fill="#fff"/>
  <circle cx="217" cy="167" r="3" fill="#fff"/>
  <circle cx="227" cy="167" r="3" fill="#fff"/>
  <rect x="200" y="190" width="80" height="14" rx="7" fill="#2E8B57"/>
  <rect x="200" y="230" width="80" height="24" rx="8" fill="#fff"/>
  <g>
    <circle cx="120" cy="200" r="20" fill="#F2C9A0"/>
    <path d="M100 220 q20 -14 40 0 v70 h-40z" fill="#2E8B57"/>
    <rect x="95" y="288" width="14" height="60" fill="#233043"/>
    <rect x="121" y="288" width="14" height="60" fill="#233043"/>
    <rect x="60" y="330" width="90" height="12" rx="6" fill="#C9D3DD"/>
    <rect x="55" y="300" width="60" height="45" rx="4" fill="#2E8B57" opacity="0.15"/>
  </g>
  <g>
    <circle cx="330" cy="160" r="20" fill="#F2C9A0"/>
    <path d="M310 180 q20 -14 40 0 v90 h-40z" fill="#2E8B57"/>
    <rect x="305" y="270" width="14" height="70" fill="#233043"/>
    <rect x="331" y="270" width="14" height="70" fill="#233043"/>
    <path d="M330 210 l25 -20" stroke="#F2C9A0" stroke-width="10" stroke-linecap="round"/>
  </g>
</svg>
